<mxfile host="app.diagrams.net" agent="Mozilla/5.0 (Windows NT 10.0; Win64; x64) AppleWebKit/537.36 (KHTML, like Gecko) Chrome/136.0.0.0 Safari/537.36" version="26.2.14">
  <diagram name="Страница — 1" id="OStHVFk9USLFTv-ojTJA">
    <mxGraphModel dx="2437" dy="1094" grid="0" gridSize="10" guides="1" tooltips="1" connect="1" arrows="1" fold="1" page="0" pageScale="1" pageWidth="827" pageHeight="1169" math="0" shadow="0">
      <root>
        <mxCell id="0" />
        <mxCell id="1" parent="0" />
        <mxCell id="dWeLDydx8X5OgZtiq1Zd-14" style="edgeStyle=orthogonalEdgeStyle;rounded=0;orthogonalLoop=1;jettySize=auto;html=1;exitX=1;exitY=0.5;exitDx=0;exitDy=0;entryX=0;entryY=0.5;entryDx=0;entryDy=0;endArrow=none;startFill=0;" parent="1" source="dWeLDydx8X5OgZtiq1Zd-1" target="dWeLDydx8X5OgZtiq1Zd-2" edge="1">
          <mxGeometry relative="1" as="geometry" />
        </mxCell>
        <mxCell id="dWeLDydx8X5OgZtiq1Zd-1" value="&lt;font style=&quot;font-size: 32px;&quot;&gt;0&lt;/font&gt;" style="ellipse;whiteSpace=wrap;html=1;aspect=fixed;" parent="1" vertex="1">
          <mxGeometry x="180" y="133" width="80" height="80" as="geometry" />
        </mxCell>
        <mxCell id="dWeLDydx8X5OgZtiq1Zd-2" value="&lt;span style=&quot;font-size: 32px;&quot;&gt;1&lt;/span&gt;" style="ellipse;whiteSpace=wrap;html=1;aspect=fixed;" parent="1" vertex="1">
          <mxGeometry x="437" y="133" width="80" height="80" as="geometry" />
        </mxCell>
        <mxCell id="dWeLDydx8X5OgZtiq1Zd-9" style="edgeStyle=orthogonalEdgeStyle;rounded=0;orthogonalLoop=1;jettySize=auto;html=1;exitX=0;exitY=0.5;exitDx=0;exitDy=0;entryX=1;entryY=0.5;entryDx=0;entryDy=0;endArrow=none;startFill=0;" parent="1" source="dWeLDydx8X5OgZtiq1Zd-3" target="dWeLDydx8X5OgZtiq1Zd-4" edge="1">
          <mxGeometry relative="1" as="geometry" />
        </mxCell>
        <mxCell id="dWeLDydx8X5OgZtiq1Zd-18" style="edgeStyle=orthogonalEdgeStyle;rounded=0;orthogonalLoop=1;jettySize=auto;html=1;exitX=1;exitY=0.5;exitDx=0;exitDy=0;entryX=0;entryY=0.5;entryDx=0;entryDy=0;endArrow=none;startFill=0;" parent="1" source="dWeLDydx8X5OgZtiq1Zd-3" target="dWeLDydx8X5OgZtiq1Zd-7" edge="1">
          <mxGeometry relative="1" as="geometry" />
        </mxCell>
        <mxCell id="dWeLDydx8X5OgZtiq1Zd-3" value="&lt;span style=&quot;font-size: 32px;&quot;&gt;3&lt;/span&gt;" style="ellipse;whiteSpace=wrap;html=1;aspect=fixed;" parent="1" vertex="1">
          <mxGeometry x="323" y="260" width="80" height="80" as="geometry" />
        </mxCell>
        <mxCell id="dWeLDydx8X5OgZtiq1Zd-4" value="&lt;span style=&quot;font-size: 32px;&quot;&gt;2&lt;/span&gt;" style="ellipse;whiteSpace=wrap;html=1;aspect=fixed;" parent="1" vertex="1">
          <mxGeometry x="63" y="260" width="80" height="80" as="geometry" />
        </mxCell>
        <mxCell id="dWeLDydx8X5OgZtiq1Zd-5" value="&lt;span style=&quot;font-size: 32px;&quot;&gt;6&lt;/span&gt;" style="ellipse;whiteSpace=wrap;html=1;aspect=fixed;" parent="1" vertex="1">
          <mxGeometry x="442" y="371" width="80" height="80" as="geometry" />
        </mxCell>
        <mxCell id="dWeLDydx8X5OgZtiq1Zd-20" style="edgeStyle=orthogonalEdgeStyle;rounded=0;orthogonalLoop=1;jettySize=auto;html=1;exitX=1;exitY=0.5;exitDx=0;exitDy=0;entryX=0;entryY=0.5;entryDx=0;entryDy=0;endArrow=none;startFill=0;" parent="1" source="dWeLDydx8X5OgZtiq1Zd-6" target="dWeLDydx8X5OgZtiq1Zd-5" edge="1">
          <mxGeometry relative="1" as="geometry" />
        </mxCell>
        <mxCell id="dWeLDydx8X5OgZtiq1Zd-6" value="&lt;span style=&quot;font-size: 32px;&quot;&gt;5&lt;/span&gt;" style="ellipse;whiteSpace=wrap;html=1;aspect=fixed;" parent="1" vertex="1">
          <mxGeometry x="176" y="371" width="80" height="80" as="geometry" />
        </mxCell>
        <mxCell id="dWeLDydx8X5OgZtiq1Zd-7" value="&lt;span style=&quot;font-size: 32px;&quot;&gt;4&lt;/span&gt;" style="ellipse;whiteSpace=wrap;html=1;aspect=fixed;" parent="1" vertex="1">
          <mxGeometry x="575" y="260" width="80" height="80" as="geometry" />
        </mxCell>
        <mxCell id="dWeLDydx8X5OgZtiq1Zd-13" value="" style="endArrow=none;html=1;rounded=0;entryX=0;entryY=0;entryDx=0;entryDy=0;exitX=1;exitY=1;exitDx=0;exitDy=0;startFill=0;" parent="1" source="dWeLDydx8X5OgZtiq1Zd-1" target="dWeLDydx8X5OgZtiq1Zd-3" edge="1">
          <mxGeometry width="50" height="50" relative="1" as="geometry">
            <mxPoint x="267" y="240" as="sourcePoint" />
            <mxPoint x="317" y="190" as="targetPoint" />
          </mxGeometry>
        </mxCell>
        <mxCell id="dWeLDydx8X5OgZtiq1Zd-15" value="" style="endArrow=none;html=1;rounded=0;exitX=1;exitY=0;exitDx=0;exitDy=0;entryX=0;entryY=1;entryDx=0;entryDy=0;startFill=0;" parent="1" source="dWeLDydx8X5OgZtiq1Zd-3" target="dWeLDydx8X5OgZtiq1Zd-2" edge="1">
          <mxGeometry width="50" height="50" relative="1" as="geometry">
            <mxPoint x="403" y="255" as="sourcePoint" />
            <mxPoint x="453" y="205" as="targetPoint" />
          </mxGeometry>
        </mxCell>
        <mxCell id="dWeLDydx8X5OgZtiq1Zd-16" value="" style="endArrow=none;html=1;rounded=0;entryX=1;entryY=1;entryDx=0;entryDy=0;exitX=0;exitY=0;exitDx=0;exitDy=0;startFill=0;" parent="1" source="dWeLDydx8X5OgZtiq1Zd-7" target="dWeLDydx8X5OgZtiq1Zd-2" edge="1">
          <mxGeometry width="50" height="50" relative="1" as="geometry">
            <mxPoint x="517" y="266" as="sourcePoint" />
            <mxPoint x="567" y="216" as="targetPoint" />
          </mxGeometry>
        </mxCell>
        <mxCell id="dWeLDydx8X5OgZtiq1Zd-17" value="" style="endArrow=none;html=1;rounded=0;entryX=1;entryY=0;entryDx=0;entryDy=0;exitX=0;exitY=1;exitDx=0;exitDy=0;startFill=0;" parent="1" source="dWeLDydx8X5OgZtiq1Zd-7" target="dWeLDydx8X5OgZtiq1Zd-5" edge="1">
          <mxGeometry width="50" height="50" relative="1" as="geometry">
            <mxPoint x="523" y="358" as="sourcePoint" />
            <mxPoint x="573" y="308" as="targetPoint" />
          </mxGeometry>
        </mxCell>
        <mxCell id="dWeLDydx8X5OgZtiq1Zd-19" value="" style="endArrow=none;html=1;rounded=0;exitX=1;exitY=1;exitDx=0;exitDy=0;entryX=0;entryY=0;entryDx=0;entryDy=0;startFill=0;" parent="1" source="dWeLDydx8X5OgZtiq1Zd-3" target="dWeLDydx8X5OgZtiq1Zd-5" edge="1">
          <mxGeometry width="50" height="50" relative="1" as="geometry">
            <mxPoint x="430" y="396" as="sourcePoint" />
            <mxPoint x="480" y="346" as="targetPoint" />
          </mxGeometry>
        </mxCell>
        <mxCell id="dWeLDydx8X5OgZtiq1Zd-21" value="" style="endArrow=none;html=1;rounded=0;exitX=1;exitY=1;exitDx=0;exitDy=0;entryX=0;entryY=0;entryDx=0;entryDy=0;startFill=0;" parent="1" source="dWeLDydx8X5OgZtiq1Zd-4" target="dWeLDydx8X5OgZtiq1Zd-6" edge="1">
          <mxGeometry width="50" height="50" relative="1" as="geometry">
            <mxPoint x="102" y="396" as="sourcePoint" />
            <mxPoint x="152" y="346" as="targetPoint" />
          </mxGeometry>
        </mxCell>
        <mxCell id="zN-ctmOSF2nRcy0drpBw-1" value="&lt;span style=&quot;font-size: 24px;&quot;&gt;8&lt;/span&gt;" style="text;html=1;align=center;verticalAlign=middle;resizable=0;points=[];autosize=1;strokeColor=none;fillColor=none;" parent="1" vertex="1">
          <mxGeometry x="332" y="129" width="31" height="41" as="geometry" />
        </mxCell>
        <mxCell id="zN-ctmOSF2nRcy0drpBw-2" value="&lt;span style=&quot;font-size: 24px;&quot;&gt;2&lt;/span&gt;" style="text;html=1;align=center;verticalAlign=middle;resizable=0;points=[];autosize=1;strokeColor=none;fillColor=none;" parent="1" vertex="1">
          <mxGeometry x="287" y="200" width="31" height="41" as="geometry" />
        </mxCell>
        <mxCell id="zN-ctmOSF2nRcy0drpBw-3" value="&lt;span style=&quot;font-size: 24px;&quot;&gt;4&lt;/span&gt;" style="text;html=1;align=center;verticalAlign=middle;resizable=0;points=[];autosize=1;strokeColor=none;fillColor=none;" parent="1" vertex="1">
          <mxGeometry x="384" y="206" width="31" height="41" as="geometry" />
        </mxCell>
        <mxCell id="zN-ctmOSF2nRcy0drpBw-4" value="&lt;span style=&quot;font-size: 24px;&quot;&gt;1&lt;/span&gt;" style="text;html=1;align=center;verticalAlign=middle;resizable=0;points=[];autosize=1;strokeColor=none;fillColor=none;" parent="1" vertex="1">
          <mxGeometry x="466.5" y="257" width="31" height="41" as="geometry" />
        </mxCell>
        <mxCell id="zN-ctmOSF2nRcy0drpBw-5" value="&lt;span style=&quot;font-size: 24px;&quot;&gt;9&lt;/span&gt;" style="text;html=1;align=center;verticalAlign=middle;resizable=0;points=[];autosize=1;strokeColor=none;fillColor=none;" parent="1" vertex="1">
          <mxGeometry x="207" y="261" width="31" height="41" as="geometry" />
        </mxCell>
        <mxCell id="zN-ctmOSF2nRcy0drpBw-6" value="&lt;span style=&quot;font-size: 24px;&quot;&gt;3&lt;/span&gt;" style="text;html=1;align=center;verticalAlign=middle;resizable=0;points=[];autosize=1;strokeColor=none;fillColor=none;" parent="1" vertex="1">
          <mxGeometry x="556" y="195" width="31" height="41" as="geometry" />
        </mxCell>
        <mxCell id="zN-ctmOSF2nRcy0drpBw-7" value="&lt;span style=&quot;font-size: 24px;&quot;&gt;11&lt;/span&gt;" style="text;html=1;align=center;verticalAlign=middle;resizable=0;points=[];autosize=1;strokeColor=none;fillColor=none;" parent="1" vertex="1">
          <mxGeometry x="114" y="349" width="43" height="41" as="geometry" />
        </mxCell>
        <mxCell id="zN-ctmOSF2nRcy0drpBw-8" value="&lt;span style=&quot;font-size: 24px;&quot;&gt;2&lt;/span&gt;" style="text;html=1;align=center;verticalAlign=middle;resizable=0;points=[];autosize=1;strokeColor=none;fillColor=none;" parent="1" vertex="1">
          <mxGeometry x="332" y="413" width="31" height="41" as="geometry" />
        </mxCell>
        <mxCell id="zN-ctmOSF2nRcy0drpBw-9" value="&lt;span style=&quot;font-size: 24px;&quot;&gt;10&lt;/span&gt;" style="text;html=1;align=center;verticalAlign=middle;resizable=0;points=[];autosize=1;strokeColor=none;fillColor=none;" parent="1" vertex="1">
          <mxGeometry x="540" y="349" width="45" height="41" as="geometry" />
        </mxCell>
        <mxCell id="zN-ctmOSF2nRcy0drpBw-11" value="&lt;span style=&quot;font-size: 24px;&quot;&gt;9&lt;/span&gt;" style="text;html=1;align=center;verticalAlign=middle;resizable=0;points=[];autosize=1;strokeColor=none;fillColor=none;" parent="1" vertex="1">
          <mxGeometry x="419" y="320" width="31" height="41" as="geometry" />
        </mxCell>
        <mxCell id="zN-ctmOSF2nRcy0drpBw-13" value="&lt;font style=&quot;font-size: 32px;&quot;&gt;0&lt;/font&gt;" style="ellipse;whiteSpace=wrap;html=1;aspect=fixed;fillColor=#B3B3B3;" parent="1" vertex="1">
          <mxGeometry x="1469" y="240" width="80" height="80" as="geometry" />
        </mxCell>
        <mxCell id="zN-ctmOSF2nRcy0drpBw-14" value="&lt;span style=&quot;font-size: 32px;&quot;&gt;1&lt;/span&gt;" style="ellipse;whiteSpace=wrap;html=1;aspect=fixed;fillColor=#B3B3B3;" parent="1" vertex="1">
          <mxGeometry x="1726" y="240" width="80" height="80" as="geometry" />
        </mxCell>
        <mxCell id="zN-ctmOSF2nRcy0drpBw-15" style="edgeStyle=orthogonalEdgeStyle;rounded=0;orthogonalLoop=1;jettySize=auto;html=1;exitX=0;exitY=0.5;exitDx=0;exitDy=0;entryX=1;entryY=0.5;entryDx=0;entryDy=0;endArrow=none;startFill=0;" parent="1" source="zN-ctmOSF2nRcy0drpBw-17" target="zN-ctmOSF2nRcy0drpBw-18" edge="1">
          <mxGeometry relative="1" as="geometry" />
        </mxCell>
        <mxCell id="zN-ctmOSF2nRcy0drpBw-16" style="edgeStyle=orthogonalEdgeStyle;rounded=0;orthogonalLoop=1;jettySize=auto;html=1;exitX=1;exitY=0.5;exitDx=0;exitDy=0;entryX=0;entryY=0.5;entryDx=0;entryDy=0;endArrow=none;startFill=0;" parent="1" source="zN-ctmOSF2nRcy0drpBw-17" target="zN-ctmOSF2nRcy0drpBw-22" edge="1">
          <mxGeometry relative="1" as="geometry" />
        </mxCell>
        <mxCell id="zN-ctmOSF2nRcy0drpBw-17" value="&lt;span style=&quot;font-size: 32px;&quot;&gt;3&lt;/span&gt;" style="ellipse;whiteSpace=wrap;html=1;aspect=fixed;fillColor=#B3B3B3;" parent="1" vertex="1">
          <mxGeometry x="1612" y="367" width="80" height="80" as="geometry" />
        </mxCell>
        <mxCell id="zN-ctmOSF2nRcy0drpBw-18" value="&lt;span style=&quot;font-size: 32px;&quot;&gt;2&lt;/span&gt;" style="ellipse;whiteSpace=wrap;html=1;aspect=fixed;fillColor=#B3B3B3;" parent="1" vertex="1">
          <mxGeometry x="1352" y="367" width="80" height="80" as="geometry" />
        </mxCell>
        <mxCell id="zN-ctmOSF2nRcy0drpBw-19" value="&lt;span style=&quot;font-size: 32px;&quot;&gt;6&lt;/span&gt;" style="ellipse;whiteSpace=wrap;html=1;aspect=fixed;fillColor=#B3B3B3;" parent="1" vertex="1">
          <mxGeometry x="1731" y="478" width="80" height="80" as="geometry" />
        </mxCell>
        <mxCell id="zN-ctmOSF2nRcy0drpBw-20" style="edgeStyle=orthogonalEdgeStyle;rounded=0;orthogonalLoop=1;jettySize=auto;html=1;exitX=1;exitY=0.5;exitDx=0;exitDy=0;entryX=0;entryY=0.5;entryDx=0;entryDy=0;endArrow=none;startFill=0;" parent="1" source="zN-ctmOSF2nRcy0drpBw-21" target="zN-ctmOSF2nRcy0drpBw-19" edge="1">
          <mxGeometry relative="1" as="geometry" />
        </mxCell>
        <mxCell id="zN-ctmOSF2nRcy0drpBw-21" value="&lt;span style=&quot;font-size: 32px;&quot;&gt;5&lt;/span&gt;" style="ellipse;whiteSpace=wrap;html=1;aspect=fixed;fillColor=#B3B3B3;" parent="1" vertex="1">
          <mxGeometry x="1465" y="478" width="80" height="80" as="geometry" />
        </mxCell>
        <mxCell id="zN-ctmOSF2nRcy0drpBw-22" value="&lt;span style=&quot;font-size: 32px;&quot;&gt;4&lt;/span&gt;" style="ellipse;whiteSpace=wrap;html=1;aspect=fixed;fillColor=#B3B3B3;" parent="1" vertex="1">
          <mxGeometry x="1864" y="367" width="80" height="80" as="geometry" />
        </mxCell>
        <mxCell id="zN-ctmOSF2nRcy0drpBw-23" value="" style="endArrow=none;html=1;rounded=0;entryX=0;entryY=0;entryDx=0;entryDy=0;exitX=1;exitY=1;exitDx=0;exitDy=0;startFill=0;" parent="1" source="zN-ctmOSF2nRcy0drpBw-13" target="zN-ctmOSF2nRcy0drpBw-17" edge="1">
          <mxGeometry width="50" height="50" relative="1" as="geometry">
            <mxPoint x="1556" y="347" as="sourcePoint" />
            <mxPoint x="1606" y="297" as="targetPoint" />
          </mxGeometry>
        </mxCell>
        <mxCell id="zN-ctmOSF2nRcy0drpBw-25" value="" style="endArrow=none;html=1;rounded=0;entryX=1;entryY=1;entryDx=0;entryDy=0;exitX=0;exitY=0;exitDx=0;exitDy=0;startFill=0;" parent="1" source="zN-ctmOSF2nRcy0drpBw-22" target="zN-ctmOSF2nRcy0drpBw-14" edge="1">
          <mxGeometry width="50" height="50" relative="1" as="geometry">
            <mxPoint x="1806" y="373" as="sourcePoint" />
            <mxPoint x="1856" y="323" as="targetPoint" />
          </mxGeometry>
        </mxCell>
        <mxCell id="zN-ctmOSF2nRcy0drpBw-27" value="" style="endArrow=none;html=1;rounded=0;exitX=1;exitY=1;exitDx=0;exitDy=0;entryX=0;entryY=0;entryDx=0;entryDy=0;startFill=0;" parent="1" source="zN-ctmOSF2nRcy0drpBw-17" target="zN-ctmOSF2nRcy0drpBw-19" edge="1">
          <mxGeometry width="50" height="50" relative="1" as="geometry">
            <mxPoint x="1719" y="503" as="sourcePoint" />
            <mxPoint x="1769" y="453" as="targetPoint" />
          </mxGeometry>
        </mxCell>
        <mxCell id="zN-ctmOSF2nRcy0drpBw-30" value="&lt;span style=&quot;font-size: 24px;&quot;&gt;2&lt;/span&gt;" style="text;html=1;align=center;verticalAlign=middle;resizable=0;points=[];autosize=1;strokeColor=none;fillColor=none;" parent="1" vertex="1">
          <mxGeometry x="1576" y="307" width="31" height="41" as="geometry" />
        </mxCell>
        <mxCell id="zN-ctmOSF2nRcy0drpBw-32" value="&lt;span style=&quot;font-size: 24px;&quot;&gt;1&lt;/span&gt;" style="text;html=1;align=center;verticalAlign=middle;resizable=0;points=[];autosize=1;strokeColor=none;fillColor=none;" parent="1" vertex="1">
          <mxGeometry x="1755.5" y="364" width="31" height="41" as="geometry" />
        </mxCell>
        <mxCell id="zN-ctmOSF2nRcy0drpBw-33" value="&lt;span style=&quot;font-size: 24px;&quot;&gt;9&lt;/span&gt;" style="text;html=1;align=center;verticalAlign=middle;resizable=0;points=[];autosize=1;strokeColor=none;fillColor=none;" parent="1" vertex="1">
          <mxGeometry x="1496" y="368" width="31" height="41" as="geometry" />
        </mxCell>
        <mxCell id="zN-ctmOSF2nRcy0drpBw-34" value="&lt;span style=&quot;font-size: 24px;&quot;&gt;3&lt;/span&gt;" style="text;html=1;align=center;verticalAlign=middle;resizable=0;points=[];autosize=1;strokeColor=none;fillColor=none;" parent="1" vertex="1">
          <mxGeometry x="1845" y="302" width="31" height="41" as="geometry" />
        </mxCell>
        <mxCell id="zN-ctmOSF2nRcy0drpBw-36" value="&lt;span style=&quot;font-size: 24px;&quot;&gt;2&lt;/span&gt;" style="text;html=1;align=center;verticalAlign=middle;resizable=0;points=[];autosize=1;strokeColor=none;fillColor=none;" parent="1" vertex="1">
          <mxGeometry x="1621" y="520" width="31" height="41" as="geometry" />
        </mxCell>
        <mxCell id="zN-ctmOSF2nRcy0drpBw-38" value="&lt;span style=&quot;font-size: 24px;&quot;&gt;9&lt;/span&gt;" style="text;html=1;align=center;verticalAlign=middle;resizable=0;points=[];autosize=1;strokeColor=none;fillColor=none;" parent="1" vertex="1">
          <mxGeometry x="1708" y="427" width="31" height="41" as="geometry" />
        </mxCell>
        <mxCell id="55i71uVfm66adUf7IP-T-1" value="" style="endArrow=none;html=1;rounded=0;" edge="1" parent="1">
          <mxGeometry width="50" height="50" relative="1" as="geometry">
            <mxPoint x="-96" y="1149" as="sourcePoint" />
            <mxPoint x="1133" y="1149" as="targetPoint" />
          </mxGeometry>
        </mxCell>
        <mxCell id="55i71uVfm66adUf7IP-T-2" value="" style="endArrow=none;html=1;rounded=0;" edge="1" parent="1">
          <mxGeometry width="50" height="50" relative="1" as="geometry">
            <mxPoint x="769" y="816" as="sourcePoint" />
            <mxPoint x="1044" y="1154" as="targetPoint" />
          </mxGeometry>
        </mxCell>
        <mxCell id="55i71uVfm66adUf7IP-T-3" value="" style="endArrow=none;html=1;rounded=0;" edge="1" parent="1">
          <mxGeometry width="50" height="50" relative="1" as="geometry">
            <mxPoint x="664" y="1148" as="sourcePoint" />
            <mxPoint x="415" y="832" as="targetPoint" />
          </mxGeometry>
        </mxCell>
        <mxCell id="55i71uVfm66adUf7IP-T-4" value="" style="verticalLabelPosition=bottom;verticalAlign=top;html=1;shape=offPageConnector;rounded=0;size=0.5;direction=north;fillColor=#fff2cc;strokeColor=#d6b656;" vertex="1" parent="1">
          <mxGeometry x="1134" y="1025" width="295" height="238" as="geometry" />
        </mxCell>
        <mxCell id="55i71uVfm66adUf7IP-T-5" value="" style="endArrow=none;html=1;rounded=0;" edge="1" parent="1">
          <mxGeometry width="50" height="50" relative="1" as="geometry">
            <mxPoint x="1043" y="1154" as="sourcePoint" />
            <mxPoint x="807" y="1495" as="targetPoint" />
          </mxGeometry>
        </mxCell>
        <mxCell id="55i71uVfm66adUf7IP-T-6" value="" style="endArrow=none;html=1;rounded=0;" edge="1" parent="1">
          <mxGeometry width="50" height="50" relative="1" as="geometry">
            <mxPoint x="424" y="1451" as="sourcePoint" />
            <mxPoint x="665" y="1149" as="targetPoint" />
          </mxGeometry>
        </mxCell>
        <mxCell id="55i71uVfm66adUf7IP-T-7" value="" style="endArrow=none;html=1;rounded=0;" edge="1" parent="1">
          <mxGeometry width="50" height="50" relative="1" as="geometry">
            <mxPoint x="286" y="1147" as="sourcePoint" />
            <mxPoint x="37" y="831" as="targetPoint" />
          </mxGeometry>
        </mxCell>
        <mxCell id="55i71uVfm66adUf7IP-T-8" value="" style="endArrow=none;html=1;rounded=0;" edge="1" parent="1">
          <mxGeometry width="50" height="50" relative="1" as="geometry">
            <mxPoint x="46" y="1450" as="sourcePoint" />
            <mxPoint x="287" y="1148" as="targetPoint" />
          </mxGeometry>
        </mxCell>
        <mxCell id="55i71uVfm66adUf7IP-T-9" value="&lt;span style=&quot;font-family: &amp;quot;Times New Roman&amp;quot;, serif;&quot;&gt;&lt;font style=&quot;font-size: 32px;&quot;&gt;Не успеваю сделать курсовую&lt;/font&gt;&lt;/span&gt;&lt;div&gt;&lt;span style=&quot;font-family: &amp;quot;Times New Roman&amp;quot;, serif;&quot;&gt;&lt;font style=&quot;font-size: 32px;&quot;&gt;вовремя&lt;/font&gt;&lt;/span&gt;&lt;/div&gt;" style="text;html=1;align=center;verticalAlign=middle;whiteSpace=wrap;rounded=0;" vertex="1" parent="1">
          <mxGeometry x="1149" y="1050.5" width="166" height="187" as="geometry" />
        </mxCell>
        <mxCell id="55i71uVfm66adUf7IP-T-10" value="&lt;font style=&quot;font-size: 24px;&quot;&gt;Человек&lt;/font&gt;" style="rounded=0;whiteSpace=wrap;html=1;fillColor=#eeeeee;strokeColor=#36393d;" vertex="1" parent="1">
          <mxGeometry x="726" y="701" width="209" height="56" as="geometry" />
        </mxCell>
        <mxCell id="55i71uVfm66adUf7IP-T-11" value="" style="endArrow=classic;html=1;rounded=0;exitX=0.5;exitY=1;exitDx=0;exitDy=0;" edge="1" parent="1" source="55i71uVfm66adUf7IP-T-10">
          <mxGeometry width="50" height="50" relative="1" as="geometry">
            <mxPoint x="640" y="1141" as="sourcePoint" />
            <mxPoint x="831" y="867" as="targetPoint" />
          </mxGeometry>
        </mxCell>
        <mxCell id="55i71uVfm66adUf7IP-T-12" value="&lt;span style=&quot;font-size: 24px;&quot;&gt;Процессы&lt;/span&gt;" style="rounded=0;whiteSpace=wrap;html=1;fillColor=#eeeeee;strokeColor=#36393d;" vertex="1" parent="1">
          <mxGeometry x="761" y="1545" width="209" height="56" as="geometry" />
        </mxCell>
        <mxCell id="55i71uVfm66adUf7IP-T-13" value="" style="endArrow=classic;html=1;rounded=0;exitX=0.5;exitY=0;exitDx=0;exitDy=0;" edge="1" parent="1" source="55i71uVfm66adUf7IP-T-12">
          <mxGeometry width="50" height="50" relative="1" as="geometry">
            <mxPoint x="943.9999999999995" y="1448" as="sourcePoint" />
            <mxPoint x="866" y="1431" as="targetPoint" />
          </mxGeometry>
        </mxCell>
        <mxCell id="55i71uVfm66adUf7IP-T-14" value="&lt;span style=&quot;font-size: 24px;&quot;&gt;Материалы&lt;/span&gt;" style="rounded=0;whiteSpace=wrap;html=1;fillColor=#eeeeee;strokeColor=#36393d;" vertex="1" parent="1">
          <mxGeometry x="-27" y="701" width="209" height="56" as="geometry" />
        </mxCell>
        <mxCell id="55i71uVfm66adUf7IP-T-15" value="" style="endArrow=classic;html=1;rounded=0;exitX=0.5;exitY=1;exitDx=0;exitDy=0;" edge="1" parent="1" source="55i71uVfm66adUf7IP-T-14">
          <mxGeometry width="50" height="50" relative="1" as="geometry">
            <mxPoint x="-113" y="1141" as="sourcePoint" />
            <mxPoint x="78" y="865" as="targetPoint" />
          </mxGeometry>
        </mxCell>
        <mxCell id="55i71uVfm66adUf7IP-T-16" value="&lt;span style=&quot;font-size: 24px;&quot;&gt;Техника&lt;/span&gt;" style="rounded=0;whiteSpace=wrap;html=1;fillColor=#eeeeee;strokeColor=#36393d;" vertex="1" parent="1">
          <mxGeometry x="347" y="701" width="209" height="56" as="geometry" />
        </mxCell>
        <mxCell id="55i71uVfm66adUf7IP-T-17" value="" style="endArrow=classic;html=1;rounded=0;exitX=0.5;exitY=1;exitDx=0;exitDy=0;" edge="1" parent="1" source="55i71uVfm66adUf7IP-T-16">
          <mxGeometry width="50" height="50" relative="1" as="geometry">
            <mxPoint x="261" y="1141" as="sourcePoint" />
            <mxPoint x="452" y="864" as="targetPoint" />
          </mxGeometry>
        </mxCell>
        <mxCell id="55i71uVfm66adUf7IP-T-18" value="&lt;span style=&quot;font-family: &amp;quot;Times New Roman&amp;quot;, serif;&quot;&gt;&lt;font style=&quot;font-size: 24px;&quot;&gt;Внешняя среда&lt;/font&gt;&lt;/span&gt;" style="rounded=0;whiteSpace=wrap;html=1;fillColor=#eeeeee;strokeColor=#36393d;" vertex="1" parent="1">
          <mxGeometry x="-27" y="1545" width="209" height="56" as="geometry" />
        </mxCell>
        <mxCell id="55i71uVfm66adUf7IP-T-19" value="" style="endArrow=classic;html=1;rounded=0;exitX=0.5;exitY=0;exitDx=0;exitDy=0;" edge="1" parent="1" source="55i71uVfm66adUf7IP-T-18">
          <mxGeometry width="50" height="50" relative="1" as="geometry">
            <mxPoint x="155.99999999999955" y="1448" as="sourcePoint" />
            <mxPoint x="78" y="1426" as="targetPoint" />
          </mxGeometry>
        </mxCell>
        <mxCell id="55i71uVfm66adUf7IP-T-20" value="&lt;span style=&quot;font-family: &amp;quot;Times New Roman&amp;quot;, serif;&quot;&gt;&lt;font style=&quot;font-size: 24px;&quot;&gt;Не хватает методических указаний&lt;/font&gt;&lt;/span&gt;" style="rounded=0;whiteSpace=wrap;html=1;fillColor=#fff2cc;strokeColor=#d6b656;" vertex="1" parent="1">
          <mxGeometry x="-232" y="877" width="287" height="55" as="geometry" />
        </mxCell>
        <mxCell id="55i71uVfm66adUf7IP-T-21" value="&lt;font style=&quot;font-size: 24px;&quot;&gt;Прокрастинация&lt;/font&gt;" style="rounded=0;whiteSpace=wrap;html=1;fillColor=#fff2cc;strokeColor=#d6b656;" vertex="1" parent="1">
          <mxGeometry x="524" y="877" width="287" height="55" as="geometry" />
        </mxCell>
        <mxCell id="55i71uVfm66adUf7IP-T-22" value="&lt;font style=&quot;font-size: 24px;&quot;&gt;&lt;span class=&quot;_fadeIn_m1hgl_8&quot;&gt;Стресс &lt;/span&gt;&lt;span class=&quot;_fadeIn_m1hgl_8&quot;&gt;из-&lt;/span&gt;&lt;span class=&quot;_fadeIn_m1hgl_8&quot;&gt;за &lt;/span&gt;&lt;span class=&quot;_fadeIn_m1hgl_8&quot;&gt;перегрузки&lt;/span&gt;&lt;/font&gt;" style="rounded=0;whiteSpace=wrap;html=1;fillColor=#fff2cc;strokeColor=#d6b656;" vertex="1" parent="1">
          <mxGeometry x="587" y="970" width="287" height="55" as="geometry" />
        </mxCell>
        <mxCell id="55i71uVfm66adUf7IP-T-23" value="&lt;font style=&quot;font-size: 24px;&quot;&gt;&lt;span style=&quot;&quot; class=&quot;_fadeIn_m1hgl_8&quot;&gt;Поломка &lt;/span&gt;&lt;span style=&quot;&quot; class=&quot;_fadeIn_m1hgl_8&quot;&gt;компьютера&lt;/span&gt;&lt;/font&gt;" style="rounded=0;whiteSpace=wrap;html=1;fillColor=#fff2cc;strokeColor=#d6b656;" vertex="1" parent="1">
          <mxGeometry x="150" y="877" width="287" height="55" as="geometry" />
        </mxCell>
        <mxCell id="55i71uVfm66adUf7IP-T-24" value="&lt;font style=&quot;font-size: 24px;&quot;&gt;&lt;span class=&quot;_fadeIn_m1hgl_8&quot;&gt;Нет &lt;/span&gt;&lt;span class=&quot;_fadeIn_m1hgl_8&quot;&gt;доступа &lt;/span&gt;&lt;span class=&quot;_fadeIn_m1hgl_8&quot;&gt;к &lt;/span&gt;&lt;span class=&quot;_fadeIn_m1hgl_8&quot;&gt;интернету&lt;/span&gt;&lt;/font&gt;" style="rounded=0;whiteSpace=wrap;html=1;fillColor=#fff2cc;strokeColor=#d6b656;" vertex="1" parent="1">
          <mxGeometry x="210.5" y="970" width="287" height="55" as="geometry" />
        </mxCell>
        <mxCell id="55i71uVfm66adUf7IP-T-25" value="&lt;font style=&quot;font-size: 24px;&quot;&gt;&lt;span class=&quot;_fadeIn_m1hgl_8&quot;&gt;Отсутствие &lt;/span&gt;&lt;span class=&quot;_fadeIn_m1hgl_8&quot;&gt;четкого &lt;/span&gt;&lt;span class=&quot;_fadeIn_m1hgl_8&quot;&gt;плана&lt;/span&gt;&lt;/font&gt;" style="rounded=0;whiteSpace=wrap;html=1;fillColor=#fff2cc;strokeColor=#d6b656;" vertex="1" parent="1">
          <mxGeometry x="620" y="1263" width="287" height="55" as="geometry" />
        </mxCell>
        <mxCell id="55i71uVfm66adUf7IP-T-26" value="&lt;span style=&quot;font-family: &amp;quot;Times New Roman&amp;quot;, serif;&quot;&gt;&lt;font style=&quot;font-size: 24px;&quot;&gt;Непредвиденные дела&amp;nbsp;&lt;/font&gt;&lt;/span&gt;" style="rounded=0;whiteSpace=wrap;html=1;fillColor=#fff2cc;strokeColor=#d6b656;" vertex="1" parent="1">
          <mxGeometry x="-162" y="1263" width="287" height="55" as="geometry" />
        </mxCell>
        <mxCell id="55i71uVfm66adUf7IP-T-27" value="" style="endArrow=none;html=1;rounded=0;exitX=1;exitY=0.5;exitDx=0;exitDy=0;" edge="1" parent="1" source="55i71uVfm66adUf7IP-T-20">
          <mxGeometry width="50" height="50" relative="1" as="geometry">
            <mxPoint x="587" y="1038" as="sourcePoint" />
            <mxPoint x="95" y="905" as="targetPoint" />
          </mxGeometry>
        </mxCell>
        <mxCell id="55i71uVfm66adUf7IP-T-28" value="" style="endArrow=none;html=1;rounded=0;exitX=1;exitY=0.5;exitDx=0;exitDy=0;" edge="1" parent="1">
          <mxGeometry width="50" height="50" relative="1" as="geometry">
            <mxPoint x="437" y="910" as="sourcePoint" />
            <mxPoint x="477" y="910" as="targetPoint" />
          </mxGeometry>
        </mxCell>
        <mxCell id="55i71uVfm66adUf7IP-T-29" value="" style="endArrow=none;html=1;rounded=0;exitX=1;exitY=0.5;exitDx=0;exitDy=0;" edge="1" parent="1">
          <mxGeometry width="50" height="50" relative="1" as="geometry">
            <mxPoint x="497.5" y="988" as="sourcePoint" />
            <mxPoint x="537.5" y="988" as="targetPoint" />
          </mxGeometry>
        </mxCell>
        <mxCell id="55i71uVfm66adUf7IP-T-30" value="" style="endArrow=none;html=1;rounded=0;exitX=1;exitY=0.5;exitDx=0;exitDy=0;" edge="1" parent="1">
          <mxGeometry width="50" height="50" relative="1" as="geometry">
            <mxPoint x="810.5" y="916" as="sourcePoint" />
            <mxPoint x="850.5" y="916" as="targetPoint" />
          </mxGeometry>
        </mxCell>
        <mxCell id="55i71uVfm66adUf7IP-T-31" value="" style="endArrow=none;html=1;rounded=0;exitX=1;exitY=0.5;exitDx=0;exitDy=0;" edge="1" parent="1">
          <mxGeometry width="50" height="50" relative="1" as="geometry">
            <mxPoint x="874" y="994" as="sourcePoint" />
            <mxPoint x="914" y="994" as="targetPoint" />
          </mxGeometry>
        </mxCell>
        <mxCell id="55i71uVfm66adUf7IP-T-32" value="" style="endArrow=none;html=1;rounded=0;exitX=1;exitY=0.5;exitDx=0;exitDy=0;" edge="1" parent="1">
          <mxGeometry width="50" height="50" relative="1" as="geometry">
            <mxPoint x="907" y="1293" as="sourcePoint" />
            <mxPoint x="947" y="1293" as="targetPoint" />
          </mxGeometry>
        </mxCell>
        <mxCell id="55i71uVfm66adUf7IP-T-33" value="" style="endArrow=none;html=1;rounded=0;exitX=1;exitY=0.5;exitDx=0;exitDy=0;" edge="1" parent="1">
          <mxGeometry width="50" height="50" relative="1" as="geometry">
            <mxPoint x="125" y="1300" as="sourcePoint" />
            <mxPoint x="165" y="1300" as="targetPoint" />
          </mxGeometry>
        </mxCell>
        <mxCell id="55i71uVfm66adUf7IP-T-34" value="&lt;span style=&quot;font-size: 24px;&quot;&gt;Учеба&lt;/span&gt;" style="rounded=0;whiteSpace=wrap;html=1;fillColor=#eeeeee;strokeColor=#36393d;" vertex="1" parent="1">
          <mxGeometry x="363" y="1545" width="209" height="56" as="geometry" />
        </mxCell>
        <mxCell id="55i71uVfm66adUf7IP-T-35" value="" style="endArrow=classic;html=1;rounded=0;exitX=0.5;exitY=0;exitDx=0;exitDy=0;" edge="1" parent="1" source="55i71uVfm66adUf7IP-T-34">
          <mxGeometry width="50" height="50" relative="1" as="geometry">
            <mxPoint x="545.9999999999995" y="1448" as="sourcePoint" />
            <mxPoint x="468" y="1431" as="targetPoint" />
          </mxGeometry>
        </mxCell>
        <mxCell id="55i71uVfm66adUf7IP-T-36" value="&lt;span style=&quot;font-size: 24px;&quot;&gt;Нагрузка по другим предметам&lt;/span&gt;" style="rounded=0;whiteSpace=wrap;html=1;fillColor=#fff2cc;strokeColor=#d6b656;" vertex="1" parent="1">
          <mxGeometry x="223" y="1263" width="287" height="55" as="geometry" />
        </mxCell>
        <mxCell id="55i71uVfm66adUf7IP-T-37" value="" style="endArrow=none;html=1;rounded=0;exitX=1;exitY=0.5;exitDx=0;exitDy=0;" edge="1" parent="1">
          <mxGeometry width="50" height="50" relative="1" as="geometry">
            <mxPoint x="510" y="1293" as="sourcePoint" />
            <mxPoint x="550" y="1293" as="targetPoint" />
          </mxGeometry>
        </mxCell>
      </root>
    </mxGraphModel>
  </diagram>
</mxfile>
